# AST/ASF file generated using VICON BodyLanguage
# -----------------------------------------------
:version 1.10
:name VICON
:units
  mass 1.0
  length 0.45
  angle deg
:documentation
   .ast/.asf automatically generated from VICON data using
   VICON BodyBuilder and BodyLanguage model FoxedUp or BRILLIANT.MOD
:root
   order TX TY TZ RX RY RZ
   axis XYZ
   position 0 0 0  
   orientation 0 -0 0 
:bonedata
  begin
     id 1 
     name lhipjoint
     direction 0.500677 -0.737119 0.453848 
     length 2.34727 
     axis 0 -0 0  XYZ
  end
  begin
     id 2 
     name lfemur
     direction 0.34202 -0.939693 0  
     length 7.53653  
     axis 0 -0 20  XYZ
    dof rx ry rz
    limits (-160.0 20.0)
           (-70.0 70.0)
           (-60.0 70.0)
  end
  begin
     id 3 
     name ltibia
     direction 0.34202 -0.939693 0   
     length 6.85572   
     axis 0 -0 20   XYZ
    dof rx
    limits (-10.0 170.0)
  end
  begin
     id 4 
     name lfoot
     direction 0.155313 -0.426718 0.890949   
     length 2.18324   
     axis -90 -1.13533e-015 20   XYZ
    dof rx rz
    limits (-45.0 90.0)
           (-70.0 20.0)
  end
  begin
     id 5 
     name ltoes
     direction 1.53474e-011 -4.21647e-011 1   
     length 1.06748   
     axis -90 -1.13533e-015 20   XYZ
    dof rx
    limits (-90.0 20.0)
  end
  begin
     id 6 
     name rhipjoint
     direction -0.632471 -0.659587 0.406111   
     length 2.62319  
     axis 0 -0 0  XYZ 
  end
  begin
     id 7 
     name rfemur
     direction -0.34202 -0.939693 0   
     length 7.21735   
     axis 0 -0 -20   XYZ
    dof rx ry rz
    limits (-160.0 20.0)
           (-70.0 70.0)
           (-70.0 60.0)
  end
  begin
     id 8 
     name rtibia
     direction -0.34202 -0.939693 0   
     length 7.02558   
     axis 0 -0 -20   XYZ
    dof rx
    limits (-10.0 170.0)
 end
 begin
     id 9 
     name rfoot
     direction -0.16057 -0.441164 0.882945   
     length 2.10014  
     axis -90 1.13533e-015 -20   XYZ
    dof rx rz
    limits (-45.0 90.0)
           (-20.0 70.0)
  end
  begin
     id 10 
     name rtoes
     direction -1.53553e-011 -4.2192e-011 1   
     length 1.02554   
     axis -90 1.13533e-015 -20   XYZ
    dof rx
    limits (-90.0 20.0)
  end
  begin
     id 11 
     name lowerback
     direction 0.0401429 0.998861 -0.0258085   
     length 1.80848   
     axis 0 -0 0   XYZ
    dof rx ry rz
    limits (-20.0 45.0)
           (-30.0 30.0)
           (-30.0 30.0)
  end
  begin
     id 12 
     name upperback
     direction -0.0130978 0.999914 -0.000352645   
     length 1.8116   
     axis 0 -0 0   XYZ
    dof rx ry rz
    limits (-20.0 45.0)
           (-30.0 30.0)
           (-30.0 30.0)
  end
  begin
     id 13 
     name thorax
     direction -0.0300198 0.999453 0.0138573   
     length 1.81778   
     axis 0 -0 0   XYZ
    dof rx ry rz
    limits (-20.0 45.0)
           (-30.0 30.0)
           (-30.0 30.0)
  end
  begin
     id 14 
     name lowerneck
     direction -0.0401726 0.999191 -0.00173647   
     length 2.10594   
     axis 0 -0 0   XYZ
    dof rx ry rz
    limits (-20.0 45.0)
           (-30.0 30.0)
           (-30.0 30.0)
  end
  begin
     id 15 
     name upperneck
     direction 0.0119835 0.998501 0.0534085   
     length 2.07325   
     axis 0 -0 0   XYZ
    dof rx ry rz
    limits (-20.0 45.0)
           (-30.0 30.0)
           (-30.0 30.0)
  end
  begin
     id 16
     name head
     direction 0.00628309 0.999826 0.0175921  
     length 2.15096  
     axis 0 -0 0   XYZ
    dof rx ry rz
    limits (-20.0 45.0)
           (-30.0 30.0)
           (-30.0 30.0)
  end
  begin
     id 17 
     name lclavicle
     direction 0.895501 0.429681 -0.115981  
     length 4.18092  
     axis 0 -0 0   XYZ
    dof ry rz
    limits (-20.0 10.0)
           (0.0 20.0)
  end
  begin
     id 18 
     name lhumerus
     direction 1 -4.48961e-011 -3.38433e-028   
     length 5.77237   
     axis 180 -30 -90   XYZ
    dof rx ry rz
    limits (-60.0 90.0)
           (-90.0 90.0)
           (-90.0 90.0)
  end
  begin
     id 19
     name lradius
     direction 1 -4.4901e-011 1.11983e-026   
     length 2.91878   
     axis 180 -30 -90   XYZ
    dof rx
    limits (-10.0 170.0)
  end
  begin
     id 20
     name lwrist
     direction 1 -4.48934e-011 1.88176e-026   
     length 1.45939   
     axis -1.23311e-014 90 90   XYZ
    dof ry
    limits (-180.0 0.0)
 end
  begin
     id 21 
     name lhand
     direction 1 -4.4895e-011 3.76352e-026   
     length 1.06566   
     axis -2.40147e-014 90 90   XYZ
    dof rx rz
    limits (-90.0 90.0)
           (-45.0 45.0)
  end
  begin
     id 22 
     name lfingers
     direction 1 -4.49005e-011 7.52705e-026   
     length 0.859162   
     axis -4.80295e-014 90 90   XYZ
    dof rx
    limits (0.0 90.0)
  end
  begin
     id 23
     name lthumb
     direction 0.707107 -6.34885e-011 0.707107   
     length 1.23359   
     axis -90 45 -9.86935e-015   XYZ
    dof rx rz
    limits (-45.0 45.0)
           (-45.0 45.0)
  end
  begin
     id 24 
     name rclavicle
     direction -0.91006 0.40451 -0.0903492   
     length 4.23293  
     axis 0 -0 0   XYZ 
    dof ry rz
    limits (-10.0 20.0)
           (-20.0 0.0)
  end
  begin
     id 25 
     name rhumerus
     direction -1 -4.4897e-011 1.7415e-027  
     length 5.49854   
     axis 180 30 90   XYZ
    dof rx ry rz
    limits (-90.0 60.0)
           (-90.0 90.0)
           (-90.0 90.0)
  end
  begin
     id 26 
     name rradius
     direction -1 -4.48963e-011 1.21259e-026   
     length 3.1186   
     axis 180 30 90   XYZ
    dof rx
    limits (-10.0 170.0)
  end
  begin
     id 27 
     name rwrist
     direction -1 -4.48967e-011 1.88176e-026   
     length 1.5593   
     axis -1.23311e-014 -90 -90   XYZ
    dof ry
    limits (-180.0 0.0)
  end
  begin
     id 28
     name rhand
     direction -1 -4.4895e-011 3.76352e-026   
     length 0.71207   
     axis -2.40147e-014 -90 -90   XYZ
    dof rx rz
    limits (-90.0 90.0)
           (-45.0 45.0)
  end
  begin
     id 29
     name rfingers
     direction -1 -4.49005e-011 7.52705e-026   
     length 0.574089   
     axis -4.80295e-014 -90 -90   XYZ
    dof rx
    limits (0.0 90.0)
  end
  begin
     id 30
     name rthumb
     direction -0.707107 -6.34982e-011 0.707107   
     length 0.824281   
     axis -90 -45 9.86935e-015   XYZ
    dof rx rz
    limits (-45.0 45.0)
           (-45.0 45.0)
  end
:hierarchy
  begin
    root lhipjoint rhipjoint lowerback
    lhipjoint lfemur
    lfemur ltibia
    ltibia lfoot
    lfoot ltoes
    rhipjoint rfemur
    rfemur rtibia
    rtibia rfoot
    rfoot rtoes
    lowerback upperback
    upperback thorax
    thorax lowerneck lclavicle rclavicle
    lowerneck upperneck
    upperneck head
    lclavicle lhumerus
    lhumerus lradius
    lradius lwrist
    lwrist lhand lthumb
    lhand lfingers
    rclavicle rhumerus
    rhumerus rradius
    rradius rwrist
    rwrist rhand rthumb
    rhand rfingers
  end

#!OML:ASF C:\ViconDB\ViconDB\414\Spring2016\042216\male.ASF
:FULLY-SPECIFIED
:DEGREES
161
root -23.3225 17.1701 10.1809 -78.0988 88.1728 280.283
lowerback -2.02679 -4.51756 1.79091
upperback -0.630021 -6.05312 -0.0529188
thorax 0.29453 -3.02609 -1.17589
lowerneck -4.01805 4.2244 -3.41405
upperneck -11.2517 5.49999 -6.03569
head -2.82126 3.15604 -1.43547
rclavicle 1.00827e-013 7.15625e-015
rhumerus -31.1376 -13.5502 -87.0053
rradius 23.4367
rwrist 38.1875
rhand 11.3741 -21.3215
rfingers 7.12502
rthumb 36.4284 -47.5316
lclavicle 1.00827e-013 7.15625e-015
lhumerus -36.0472 19.0672 85.7609
lradius 28.3534
lwrist -18.5763
lhand -10.0935 15.6788
lfingers 7.12502
lthumb 15.8936 45.0466
rfemur -23.5532 3.46357 26.5089
rtibia 26.8599
rfoot -7.74935 -0.0674716
rtoes -6.70571
lfemur 14.6294 -1.23233 -24.7022
ltibia 11.9577
lfoot -17.7169 16.0373
ltoes -22.2327
162
root -23.2207 17.1826 10.1592 -76.2923 88.5216 281.901
lowerback -2.23519 -4.58647 1.5391
upperback -0.712923 -6.14167 -0.0920407
thorax 0.344911 -3.06989 -1.09371
lowerneck -4.23674 4.2782 -3.19293
upperneck -10.9521 5.62943 -5.37484
head -2.68912 3.17523 -1.24458
rclavicle -3.47252e-015 -1.78906e-015
rhumerus -31.5706 -14.654 -86.4235
rradius 23.2745
rwrist 38.9838
rhand 11.9578 -21.0031
rfingers 7.12502
rthumb 36.9808 -47.0725
lclavicle -3.47252e-015 -1.78906e-015
lhumerus -35.7101 17.6941 86.4306
lradius 28.9216
lwrist -17.1959
lhand -9.99764 15.671
lfingers 7.12502
lthumb 15.9859 45.0314
rfemur -23.4997 3.76399 25.9954
rtibia 27.1623
rfoot -8.18806 -0.298341
rtoes -6.51831
lfemur 13.7718 -0.75591 -24.8965
ltibia 13.7148
lfoot -17.3306 15.3606
ltoes -23.7659
163
root -23.1179 17.1925 10.1383 -79.2902 88.6156 278.864
lowerback -2.31858 -4.57229 1.64193
upperback -0.759309 -6.12581 -0.0237451
thorax 0.341008 -3.06198 -1.08529
lowerneck -4.36234 4.18687 -3.19347
upperneck -10.7071 5.5542 -4.83064
head -2.59972 3.11146 -1.05917
rclavicle -5.43552e-017 -1.19271e-015
rhumerus -32.0283 -15.1278 -85.9131
rradius 23.3224
rwrist 38.8343
rhand 11.7545 -21.5234
rfingers 7.12502
rthumb 36.7884 -47.6422
lclavicle -5.43552e-017 -1.19271e-015
lhumerus -35.2548 15.7376 87.5597
lradius 29.5547
lwrist -15.6368
lhand -9.59542 15.6045
lfingers 7.12502
lthumb 16.3732 44.9334
rfemur -23.2713 3.86071 25.8377
rtibia 27.4894
rfoot -8.65228 -0.460188
rtoes -6.4973
lfemur 13.1168 -0.245732 -24.7192
ltibia 15.4115
lfoot -16.9023 14.3323
ltoes -24.4527
164
root -23.0125 17.199 10.11 -85.6314 88.7438 272.509
lowerback -2.29206 -4.7585 1.65265
upperback -0.921018 -6.3714 0.209826
thorax 0.178352 -3.18594 -0.847724
lowerneck -4.34355 4.28961 -3.37973
upperneck -10.4601 5.72165 -4.43256
head -2.53602 3.18032 -0.897499
rclavicle 1.20604e-013 -6.4605e-016
rhumerus -32.5333 -14.7534 -85.4837
rradius 23.4016
rwrist 38.3784
rhand 12.1282 -21.4934
rfingers 7.12502
rthumb 37.142 -47.521
lclavicle 1.20604e-013 -6.4605e-016
lhumerus -35.1869 14.6383 88.4306
lradius 30.2576
lwrist -14.6644
lhand -9.48208 15.5117
lfingers 7.12502
lthumb 16.4823 44.8316
rfemur -23.0594 3.31961 25.7152
rtibia 27.8589
rfoot -9.04245 -0.0634408
rtoes -6.40882
lfemur 12.4892 0.38239 -24.5347
ltibia 17.0243
lfoot -16.38 13.018
ltoes -25.2057
165
root -22.9075 17.2039 10.0828 -95.3743 88.844 262.844
lowerback -2.24652 -4.87298 1.84137
upperback -1.04435 -6.52419 0.301887
thorax 0.0120843 -3.26422 -0.848218
lowerneck -4.11807 4.30772 -3.45673
upperneck -10.3301 5.75782 -4.03977
head -2.5464 3.18535 -0.76416
rclavicle 1.33558e-014 2.2239e-015
rhumerus -33.1212 -14.2718 -85.2945
rradius 23.626
rwrist 37.3855
rhand 12.219 -21.7366
rfingers 7.12502
rthumb 37.2278 -47.7418
lclavicle 1.33558e-014 2.2239e-015
lhumerus -35.0206 13.4263 89.1128
lradius 30.8597
lwrist -14.3506
lhand -8.90795 15.425
lfingers 7.12502
lthumb 17.035 44.6981
rfemur -22.7578 2.33346 25.6806
rtibia 28.2414
rfoot -9.46094 0.695667
rtoes -6.14451
lfemur 12.0797 1.1749 -24.2568
ltibia 18.4888
lfoot -15.6061 11.5549
ltoes -25.9916
166
root -22.8065 17.2103 10.0549 -112.703 88.9021 245.543
lowerback -2.11913 -5.00813 1.85879
upperback -1.17882 -6.69851 0.499349
thorax -0.180078 -3.35248 -0.640254
lowerneck -4.02768 4.35132 -3.73821
upperneck -10.188 5.8436 -3.62352
head -2.53705 3.22175 -0.586751
rclavicle 5.62716e-014 5.06901e-015
rhumerus -33.6465 -13.5475 -85.0562
rradius 24.0676
rwrist 36.2995
rhand 12.2905 -21.517
rfingers 7.12502
rthumb 37.2954 -47.5045
lclavicle 5.62716e-014 5.06901e-015
lhumerus -34.7304 12.0768 90.0375
lradius 31.5055
lwrist -13.6199
lhand -9.05937 15.6849
lfingers 7.12502
lthumb 16.8893 44.9705
rfemur -22.5483 1.29414 25.5677
rtibia 28.6643
rfoot -9.91574 1.49725
rtoes -6.21884
lfemur 11.6046 1.81103 -23.9902
ltibia 19.8461
lfoot -14.8737 9.90378
ltoes -26.5631
167
root -22.6978 17.2155 10.0282 -121.924 88.9116 236.44
lowerback -2.0702 -5.02271 2.0138
upperback -1.23946 -6.71718 0.604925
thorax -0.275211 -3.36282 -0.609373
lowerneck -3.98009 4.28349 -3.82039
upperneck -9.99925 5.77585 -3.25421
head -2.49646 3.17452 -0.453105
rclavicle -3.30976e-014 -6.75868e-015
rhumerus -34.1358 -13.1042 -84.8757
rradius 24.3974
rwrist 35.3636
rhand 12.6999 -21.6388
rfingers 7.12502
rthumb 37.6823 -47.5237
lclavicle -3.30976e-014 -6.75868e-015
lhumerus -34.3952 10.9468 90.7014
lradius 31.9398
lwrist -13.5685
lhand -9.05018 15.5827
lfingers 7.12502
lthumb 16.8981 44.8676
rfemur -22.2093 0.372453 25.516
rtibia 29.0947
rfoot -10.3546 2.2113
rtoes -6.31796
lfemur 11.2332 2.48208 -23.7306
ltibia 21.2211
lfoot -14.0305 8.51204
ltoes -28.1824
168
root -22.5937 17.2144 10.0022 -132.337 88.9008 226.162
lowerback -1.98727 -4.9987 2.26237
upperback -1.27864 -6.6855 0.604559
thorax -0.389384 -3.34946 -0.733578
lowerneck -3.84545 4.2291 -3.76906
upperneck -9.92378 5.70913 -3.01175
head -2.50066 3.13053 -0.386363
rclavicle 7.38361e-014 -9.14409e-015
rhumerus -34.6023 -12.9406 -84.7595
rradius 24.6888
rwrist 34.5926
rhand 12.5499 -21.5417
rfingers 7.12502
rthumb 37.5406 -47.4645
lclavicle 7.38361e-014 -9.14409e-015
lhumerus -34.1002 9.45444 91.311
lradius 32.493
lwrist -13.4391
lhand -9.01061 15.3249
lfingers 7.12502
lthumb 16.9362 44.6065
rfemur -21.8727 -0.622213 25.413
rtibia 29.5224
rfoot -10.8716 3.02494
rtoes -6.03683
lfemur 10.8659 3.04468 -23.5085
ltibia 22.6218
lfoot -13.0949 7.20594
ltoes -29.1217
169
root -22.4909 17.2157 9.97815 -142.367 88.941 216.231
lowerback -1.92905 -5.0254 2.31624
upperback -1.3174 -6.71881 0.64878
thorax -0.463504 -3.36697 -0.71027
lowerneck -3.73354 4.22263 -3.5977
upperneck -9.86355 5.69986 -2.86002
head -2.49925 3.11354 -0.368246
rclavicle -1.73564e-014 -1.19271e-014
rhumerus -35.0541 -12.1754 -84.89
rradius 25.2259
rwrist 33.5125
rhand 12.7214 -21.5425
rfingers 7.12502
rthumb 37.7027 -47.4221
lclavicle -1.73564e-014 -1.19271e-014
lhumerus -33.6906 8.33573 91.7288
lradius 33.0463
lwrist -12.9286
lhand -9.16757 15.5397
lfingers 7.12502
lthumb 16.7851 44.8341
rfemur -21.5695 -1.35697 25.2073
rtibia 29.9384
rfoot -11.4041 3.69708
rtoes -5.82737
lfemur 10.3519 3.85447 -23.2796
ltibia 24.0525
lfoot -11.8777 5.82069
ltoes -30.2341
170
root -22.3859 17.2163 9.94731 -155.581 89.1013 203.167
lowerback -1.87386 -4.9923 2.4206
upperback -1.32422 -6.67422 0.645626
thorax -0.512285 -3.34588 -0.763893
lowerneck -3.66064 4.24617 -3.59749
upperneck -9.77401 5.73719 -2.70235
head -2.48744 3.12503 -0.319187
rclavicle 4.53478e-015 -2.46493e-014
rhumerus -35.3857 -12.4266 -84.5272
rradius 25.3766
rwrist 33.6599
rhand 12.6639 -21.2207
rfingers 7.12502
rthumb 37.6483 -47.1147
lclavicle 4.53478e-015 -2.46493e-014
lhumerus -33.3331 7.64507 92.0603
lradius 33.6015
lwrist -13.2207
lhand -8.88346 15.3034
lfingers 7.12502
lthumb 17.0586 44.5744
rfemur -21.1784 -1.97018 24.8225
rtibia 30.3108
rfoot -11.9978 4.43659
rtoes -5.91372
lfemur 9.88912 4.37972 -23.3032
ltibia 25.6574
lfoot -10.9075 4.71539
ltoes -30.2129
171
root -22.2871 17.2126 9.91798 -162.85 89.0984 196.072
lowerback -1.73045 -4.98031 2.59969
upperback -1.31132 -6.65482 0.801692
thorax -0.580298 -3.33672 -0.689937
lowerneck -3.50382 4.19567 -3.9141
upperneck -9.94746 5.68363 -2.43357
head -2.59285 3.10792 -0.189503
rclavicle -1.18103e-013 -1.59028e-015
rhumerus -35.7108 -11.2022 -84.7052
rradius 25.9493
rwrist 32.362
rhand 12.6686 -20.8908
rfingers 7.12502
rthumb 37.6528 -46.7836
lclavicle -1.18103e-013 -1.59028e-015
lhumerus -32.8577 7.25482 92.474
lradius 34.0807
lwrist -13.3468
lhand -9.04823 15.1532
lfingers 7.12502
lthumb 16.9 44.4379
rfemur -20.7038 -2.20597 24.5594
rtibia 30.5873
rfoot -12.4495 4.66844
rtoes -5.67137
lfemur 9.35759 4.73105 -23.1876
ltibia 27.3938
lfoot -9.86475 3.70736
ltoes -30.3639
172
root -22.1966 17.2111 9.88274 -173.407 89.0483 185.687
lowerback -1.51923 -4.9219 2.89111
upperback -1.29215 -6.5737 0.74178
thorax -0.715846 -3.30015 -0.888985
lowerneck -3.30222 4.10439 -3.84015
upperneck -10.1173 5.56766 -2.15708
head -2.6915 3.04473 -0.120994
rclavicle -2.52581e-014 4.77083e-015
rhumerus -35.9724 -10.9428 -84.7526
rradius 26.3053
rwrist 31.7049
rhand 11.8755 -20.7164
rfingers 7.12502
rthumb 36.9029 -46.8059
lclavicle -2.52581e-014 4.77083e-015
lhumerus -32.3332 6.63434 92.6173
lradius 34.51
lwrist -13.3143
lhand -9.09723 15.0599
lfingers 7.12502
lthumb 16.8528 44.3486
rfemur -20.2771 -2.83414 24.2612
rtibia 30.8303
rfoot -12.8791 5.25814
rtoes -5.52237
lfemur 8.73491 5.39963 -23.0267
ltibia 29.2036
lfoot -8.87819 2.59542
ltoes -31.113
173
root -22.1046 17.2155 9.84953 -175.724 88.9175 183.41
lowerback -1.50552 -4.87203 3.2719
upperback -1.29156 -6.50898 0.767544
thorax -0.760265 -3.27067 -1.06821
lowerneck -3.13999 4.09586 -3.67198
upperneck -10.1799 5.54879 -2.11357
head -2.73723 3.02967 -0.140004
rclavicle 6.29278e-014 -1.98785e-015
rhumerus -36.2043 -10.9065 -84.627
rradius 26.5673
rwrist 31.4687
rhand 12.1787 -21.4185
rfingers 7.12502
rthumb 37.1897 -47.4337
lclavicle 6.29278e-014 -1.98785e-015
lhumerus -31.9037 6.26645 92.7526
lradius 35.0635
lwrist -13.2678
lhand -9.02756 15.1893
lfingers 7.12502
lthumb 16.9199 44.4722
rfemur -19.9249 -3.03484 24.0703
rtibia 31.014
rfoot -13.4271 5.39996
rtoes -5.77018
lfemur 7.93209 5.77331 -22.8267
ltibia 31.0646
lfoot -7.6334 1.73483
ltoes -30.8863
174
root -22.0189 17.2208 9.82009 -187.78 88.7712 171.34
lowerback -1.5126 -4.87579 3.2985
upperback -1.25601 -6.51446 0.86033
thorax -0.712191 -3.27178 -0.991537
lowerneck -3.12543 4.06209 -3.75233
upperneck -10.3295 5.5102 -2.05678
head -2.79479 3.01672 -0.111293
rclavicle 8.27441e-015 -2.46493e-014
rhumerus -36.3073 -10.0802 -84.7077
rradius 27.0798
rwrist 30.7429
rhand 12.5303 -21.3194
rfingers 7.12502
rthumb 37.5221 -47.2471
lclavicle 8.27441e-015 -2.46493e-014
lhumerus -31.36 6.17492 92.9523
lradius 35.6892
lwrist -13.0169
lhand -9.1737 15.1746
lfingers 7.12502
lthumb 16.7792 44.4696
rfemur -19.6267 -2.82985 23.6375
rtibia 31.1695
rfoot -13.8102 5.02627
rtoes -5.69242
lfemur 7.02904 5.91896 -22.9149
ltibia 33.0045
lfoot -6.58875 0.969956
ltoes -30.3395
175
root -21.9335 17.2268 9.78988 -195.174 88.6619 163.92
lowerback -1.48791 -4.83849 3.39303
upperback -1.26064 -6.46381 0.889336
thorax -0.735792 -3.24715 -1.01099
lowerneck -2.98585 4.03342 -3.52538
upperneck -10.4916 5.46603 -2.02874
head -2.86782 2.98994 -0.145859
rclavicle -2.1096e-014 4.77083e-015
rhumerus -36.4209 -10.2802 -84.5033
rradius 27.2326
rwrist 31.0718
rhand 12.4478 -21.0572
rfingers 7.12502
rthumb 37.4442 -47.0056
lclavicle -2.1096e-014 4.77083e-015
lhumerus -30.8796 6.13417 93.019
lradius 36.0802
lwrist -12.2086
lhand -9.61219 14.87
lfingers 7.12502
lthumb 16.3571 44.2003
rfemur -19.3451 -2.75725 23.3001
rtibia 31.2816
rfoot -14.2253 4.84217
rtoes -5.85877
lfemur 6.07719 6.08727 -23.0001
ltibia 34.9543
lfoot -5.6421 0.429266
ltoes -30.1116
